<mxfile host="Electron" modified="2024-05-19T12:19:28.332Z" agent="Mozilla/5.0 (Windows NT 10.0; Win64; x64) AppleWebKit/537.36 (KHTML, like Gecko) draw.io/24.1.0 Chrome/120.0.6099.109 Electron/28.1.0 Safari/537.36" etag="TJqiUBABrujyV110aKqU" version="24.1.0" type="device">
  <diagram name="Page-1" id="7e0a89b8-554c-2b80-1dc8-d5c74ca68de4">
    <mxGraphModel dx="2036" dy="1040" grid="1" gridSize="10" guides="1" tooltips="1" connect="1" arrows="1" fold="1" page="1" pageScale="1" pageWidth="1100" pageHeight="850" background="none" math="0" shadow="0">
      <root>
        <mxCell id="0" />
        <mxCell id="1" parent="0" />
        <mxCell id="TLK2rElqUv0vT5Di1yso-1" value="ADC, Setup and channel Management" style="text;strokeColor=none;fillColor=none;html=1;fontSize=24;fontStyle=1;verticalAlign=middle;align=center;" parent="1" vertex="1">
          <mxGeometry x="524" y="70" width="100" height="40" as="geometry" />
        </mxCell>
        <mxCell id="TLK2rElqUv0vT5Di1yso-4" value="" style="edgeStyle=orthogonalEdgeStyle;rounded=0;orthogonalLoop=1;jettySize=auto;html=1;" parent="1" source="TLK2rElqUv0vT5Di1yso-2" target="TLK2rElqUv0vT5Di1yso-3" edge="1">
          <mxGeometry relative="1" as="geometry" />
        </mxCell>
        <mxCell id="TLK2rElqUv0vT5Di1yso-2" value="" style="ellipse;whiteSpace=wrap;html=1;" parent="1" vertex="1">
          <mxGeometry x="160" y="150" width="20" height="20" as="geometry" />
        </mxCell>
        <mxCell id="TLK2rElqUv0vT5Di1yso-6" value="" style="edgeStyle=orthogonalEdgeStyle;rounded=0;orthogonalLoop=1;jettySize=auto;html=1;" parent="1" source="TLK2rElqUv0vT5Di1yso-3" target="TLK2rElqUv0vT5Di1yso-5" edge="1">
          <mxGeometry relative="1" as="geometry" />
        </mxCell>
        <mxCell id="TLK2rElqUv0vT5Di1yso-3" value="Connect PV panel, analogue and photdiode ouputs to ADC pins" style="whiteSpace=wrap;html=1;" parent="1" vertex="1">
          <mxGeometry x="110" y="230" width="120" height="60" as="geometry" />
        </mxCell>
        <mxCell id="e-kS4vR6xrY_0KqmCT8M-11" value="" style="edgeStyle=orthogonalEdgeStyle;rounded=0;orthogonalLoop=1;jettySize=auto;html=1;" edge="1" parent="1" source="TLK2rElqUv0vT5Di1yso-5" target="e-kS4vR6xrY_0KqmCT8M-10">
          <mxGeometry relative="1" as="geometry" />
        </mxCell>
        <mxCell id="TLK2rElqUv0vT5Di1yso-5" value="ADC channels PB1, PC5, PA0 and PC4" style="whiteSpace=wrap;html=1;" parent="1" vertex="1">
          <mxGeometry x="280" y="230" width="120" height="60" as="geometry" />
        </mxCell>
        <mxCell id="TLK2rElqUv0vT5Di1yso-10" value="" style="edgeStyle=orthogonalEdgeStyle;rounded=0;orthogonalLoop=1;jettySize=auto;html=1;" parent="1" source="TLK2rElqUv0vT5Di1yso-7" target="TLK2rElqUv0vT5Di1yso-9" edge="1">
          <mxGeometry relative="1" as="geometry" />
        </mxCell>
        <mxCell id="TLK2rElqUv0vT5Di1yso-7" value="Start ADC1_IN9 (PB1)" style="whiteSpace=wrap;html=1;" parent="1" vertex="1">
          <mxGeometry x="622" y="334" width="120" height="40" as="geometry" />
        </mxCell>
        <mxCell id="TLK2rElqUv0vT5Di1yso-17" value="" style="edgeStyle=orthogonalEdgeStyle;rounded=0;orthogonalLoop=1;jettySize=auto;html=1;" parent="1" source="TLK2rElqUv0vT5Di1yso-9" target="TLK2rElqUv0vT5Di1yso-12" edge="1">
          <mxGeometry relative="1" as="geometry" />
        </mxCell>
        <mxCell id="TLK2rElqUv0vT5Di1yso-9" value="get and process ADC value, stop ADC1_IN9" style="whiteSpace=wrap;html=1;" parent="1" vertex="1">
          <mxGeometry x="622" y="412" width="120" height="60" as="geometry" />
        </mxCell>
        <mxCell id="TLK2rElqUv0vT5Di1yso-11" value="" style="edgeStyle=orthogonalEdgeStyle;rounded=0;orthogonalLoop=1;jettySize=auto;html=1;" parent="1" source="TLK2rElqUv0vT5Di1yso-12" target="TLK2rElqUv0vT5Di1yso-13" edge="1">
          <mxGeometry relative="1" as="geometry" />
        </mxCell>
        <mxCell id="TLK2rElqUv0vT5Di1yso-12" value="Start ADC1_IN15 (PC5)" style="whiteSpace=wrap;html=1;" parent="1" vertex="1">
          <mxGeometry x="622" y="520" width="120" height="40" as="geometry" />
        </mxCell>
        <mxCell id="TLK2rElqUv0vT5Di1yso-13" value="get and process ADC value ,stop ADC1_IN15" style="whiteSpace=wrap;html=1;" parent="1" vertex="1">
          <mxGeometry x="622" y="584" width="120" height="60" as="geometry" />
        </mxCell>
        <mxCell id="e-kS4vR6xrY_0KqmCT8M-15" value="" style="edgeStyle=orthogonalEdgeStyle;rounded=0;orthogonalLoop=1;jettySize=auto;html=1;" edge="1" parent="1" source="e-kS4vR6xrY_0KqmCT8M-10" target="e-kS4vR6xrY_0KqmCT8M-14">
          <mxGeometry relative="1" as="geometry" />
        </mxCell>
        <mxCell id="e-kS4vR6xrY_0KqmCT8M-30" value="FALSE" style="edgeLabel;html=1;align=center;verticalAlign=middle;resizable=0;points=[];fontStyle=1" vertex="1" connectable="0" parent="e-kS4vR6xrY_0KqmCT8M-15">
          <mxGeometry x="-0.15" y="-2" relative="1" as="geometry">
            <mxPoint as="offset" />
          </mxGeometry>
        </mxCell>
        <mxCell id="e-kS4vR6xrY_0KqmCT8M-22" style="edgeStyle=orthogonalEdgeStyle;rounded=0;orthogonalLoop=1;jettySize=auto;html=1;entryX=0.5;entryY=0;entryDx=0;entryDy=0;" edge="1" parent="1" source="e-kS4vR6xrY_0KqmCT8M-10" target="e-kS4vR6xrY_0KqmCT8M-21">
          <mxGeometry relative="1" as="geometry" />
        </mxCell>
        <mxCell id="e-kS4vR6xrY_0KqmCT8M-29" value="TRUE" style="edgeLabel;html=1;align=center;verticalAlign=middle;resizable=0;points=[];fontStyle=1" vertex="1" connectable="0" parent="e-kS4vR6xrY_0KqmCT8M-22">
          <mxGeometry x="-0.5122" y="-1" relative="1" as="geometry">
            <mxPoint as="offset" />
          </mxGeometry>
        </mxCell>
        <mxCell id="e-kS4vR6xrY_0KqmCT8M-10" value="EN Meaurement" style="rhombus;whiteSpace=wrap;html=1;" vertex="1" parent="1">
          <mxGeometry x="466" y="220" width="80" height="80" as="geometry" />
        </mxCell>
        <mxCell id="e-kS4vR6xrY_0KqmCT8M-17" value="" style="edgeStyle=orthogonalEdgeStyle;rounded=0;orthogonalLoop=1;jettySize=auto;html=1;" edge="1" parent="1" source="e-kS4vR6xrY_0KqmCT8M-14" target="e-kS4vR6xrY_0KqmCT8M-16">
          <mxGeometry relative="1" as="geometry" />
        </mxCell>
        <mxCell id="e-kS4vR6xrY_0KqmCT8M-19" value="FALSE" style="edgeLabel;html=1;align=center;verticalAlign=middle;resizable=0;points=[];fontStyle=1" vertex="1" connectable="0" parent="e-kS4vR6xrY_0KqmCT8M-17">
          <mxGeometry x="0.0083" relative="1" as="geometry">
            <mxPoint as="offset" />
          </mxGeometry>
        </mxCell>
        <mxCell id="e-kS4vR6xrY_0KqmCT8M-38" style="edgeStyle=orthogonalEdgeStyle;rounded=0;orthogonalLoop=1;jettySize=auto;html=1;entryX=0.5;entryY=0;entryDx=0;entryDy=0;" edge="1" parent="1" source="e-kS4vR6xrY_0KqmCT8M-14" target="TLK2rElqUv0vT5Di1yso-7">
          <mxGeometry relative="1" as="geometry" />
        </mxCell>
        <mxCell id="e-kS4vR6xrY_0KqmCT8M-14" value="SP Mesurement" style="rhombus;whiteSpace=wrap;html=1;" vertex="1" parent="1">
          <mxGeometry x="642" y="220" width="80" height="80" as="geometry" />
        </mxCell>
        <mxCell id="e-kS4vR6xrY_0KqmCT8M-41" value="" style="edgeStyle=orthogonalEdgeStyle;rounded=0;orthogonalLoop=1;jettySize=auto;html=1;" edge="1" parent="1" source="e-kS4vR6xrY_0KqmCT8M-16" target="e-kS4vR6xrY_0KqmCT8M-40">
          <mxGeometry relative="1" as="geometry" />
        </mxCell>
        <mxCell id="e-kS4vR6xrY_0KqmCT8M-16" value="All ADC channels stopped" style="whiteSpace=wrap;html=1;" vertex="1" parent="1">
          <mxGeometry x="822" y="230" width="120" height="60" as="geometry" />
        </mxCell>
        <mxCell id="e-kS4vR6xrY_0KqmCT8M-26" value="" style="edgeStyle=orthogonalEdgeStyle;rounded=0;orthogonalLoop=1;jettySize=auto;html=1;" edge="1" parent="1" source="e-kS4vR6xrY_0KqmCT8M-21" target="e-kS4vR6xrY_0KqmCT8M-23">
          <mxGeometry relative="1" as="geometry" />
        </mxCell>
        <mxCell id="e-kS4vR6xrY_0KqmCT8M-21" value="Start ADC1_IN0 (PA0)" style="whiteSpace=wrap;html=1;" vertex="1" parent="1">
          <mxGeometry x="449" y="340" width="116" height="50" as="geometry" />
        </mxCell>
        <mxCell id="e-kS4vR6xrY_0KqmCT8M-27" value="" style="edgeStyle=orthogonalEdgeStyle;rounded=0;orthogonalLoop=1;jettySize=auto;html=1;" edge="1" parent="1" source="e-kS4vR6xrY_0KqmCT8M-23" target="e-kS4vR6xrY_0KqmCT8M-24">
          <mxGeometry relative="1" as="geometry" />
        </mxCell>
        <mxCell id="e-kS4vR6xrY_0KqmCT8M-23" value="get and process ADC value stop ADC1_IN0" style="whiteSpace=wrap;html=1;" vertex="1" parent="1">
          <mxGeometry x="447" y="412" width="120" height="60" as="geometry" />
        </mxCell>
        <mxCell id="e-kS4vR6xrY_0KqmCT8M-28" value="" style="edgeStyle=orthogonalEdgeStyle;rounded=0;orthogonalLoop=1;jettySize=auto;html=1;" edge="1" parent="1" source="e-kS4vR6xrY_0KqmCT8M-24" target="e-kS4vR6xrY_0KqmCT8M-25">
          <mxGeometry relative="1" as="geometry" />
        </mxCell>
        <mxCell id="e-kS4vR6xrY_0KqmCT8M-24" value="Start ADC1_IN14 (PC4)" style="whiteSpace=wrap;html=1;" vertex="1" parent="1">
          <mxGeometry x="447" y="507" width="120" height="60" as="geometry" />
        </mxCell>
        <mxCell id="e-kS4vR6xrY_0KqmCT8M-25" value="get and process ADC value ,stop ADC1_IN14" style="whiteSpace=wrap;html=1;" vertex="1" parent="1">
          <mxGeometry x="446" y="589" width="120" height="60" as="geometry" />
        </mxCell>
        <mxCell id="e-kS4vR6xrY_0KqmCT8M-31" value="" style="endArrow=classic;html=1;rounded=0;exitX=0.412;exitY=1.132;exitDx=0;exitDy=0;exitPerimeter=0;" edge="1" parent="1">
          <mxGeometry width="50" height="50" relative="1" as="geometry">
            <mxPoint x="512" y="647.9200000000001" as="sourcePoint" />
            <mxPoint x="506" y="220" as="targetPoint" />
            <Array as="points">
              <mxPoint x="511.56" y="687" />
              <mxPoint x="430" y="687" />
              <mxPoint x="430" y="190" />
              <mxPoint x="506" y="190" />
            </Array>
          </mxGeometry>
        </mxCell>
        <mxCell id="e-kS4vR6xrY_0KqmCT8M-39" value="" style="endArrow=classic;html=1;rounded=0;exitX=0.5;exitY=1;exitDx=0;exitDy=0;entryX=0.5;entryY=0;entryDx=0;entryDy=0;" edge="1" parent="1" source="TLK2rElqUv0vT5Di1yso-13" target="e-kS4vR6xrY_0KqmCT8M-14">
          <mxGeometry width="50" height="50" relative="1" as="geometry">
            <mxPoint x="769.9999999999999" y="717.0999999999999" as="sourcePoint" />
            <mxPoint x="740" y="130" as="targetPoint" />
            <Array as="points">
              <mxPoint x="682" y="680" />
              <mxPoint x="790" y="680" />
              <mxPoint x="790" y="190" />
              <mxPoint x="682" y="190" />
            </Array>
          </mxGeometry>
        </mxCell>
        <mxCell id="e-kS4vR6xrY_0KqmCT8M-40" value="" style="ellipse;whiteSpace=wrap;html=1;" vertex="1" parent="1">
          <mxGeometry x="986" y="250" width="28" height="20" as="geometry" />
        </mxCell>
      </root>
    </mxGraphModel>
  </diagram>
</mxfile>
